<?xml version="1.0" encoding="utf-8"?>
<!-- Generator: Adobe Illustrator 16.0.0, SVG Export Plug-In . SVG Version: 6.00 Build 0)  -->
<!DOCTYPE svg PUBLIC "-//W3C//DTD SVG 1.1//EN" "http://www.w3.org/Graphics/SVG/1.1/DTD/svg11.dtd">
<svg version="1.1" id="Layer_1" xmlns="http://www.w3.org/2000/svg" xmlns:xlink="http://www.w3.org/1999/xlink" x="0px" y="0px"
	 width="288.373px" height="181.784px" viewBox="0 0 288.373 181.784" enable-background="new 0 0 288.373 181.784"
	 xml:space="preserve">
<g>
	<path fill="#FFFFFF" d="M117.491,142.157l-0.034,9.339l0.678,0.119c2.145,0.404,4.319,0.684,6.486,0.831
		c1.901,0.177,3.817,0.217,5.734,0.108c1.819-0.131,3.624-0.473,5.378-1.008c2.044-0.581,3.949-1.601,5.578-2.979
		c1.454-1.241,2.579-2.853,3.236-4.652c1.174-3.023,1.145-6.377-0.065-9.378c-0.626-1.561-1.622-2.938-2.906-4.038
		c-1.239-1.115-2.688-1.953-4.274-2.488l-7.041-2.613c-0.843-0.354-1.534-1.002-1.927-1.828c-0.308-0.684-0.276-1.475,0.091-2.141
		c0.114-0.223,0.276-0.444,0.464-0.633c0.211-0.216,0.456-0.415,0.724-0.575c0.1-0.057,0.205-0.119,0.31-0.182
		c0.792-0.382,1.641-0.627,2.509-0.724c1.498-0.21,3.013-0.205,4.487,0.052c1.763,0.188,3.511,0.495,5.222,0.928l0.364,0.086v-8.627
		l-0.675-0.131c-1.742-0.428-3.511-0.746-5.302-0.951c-2.306-0.308-4.649-0.319-6.973-0.034c-2.918,0.273-5.708,1.395-8.012,3.229
		c-1.563,1.225-2.744,2.864-3.422,4.732c-1.022,2.83-1.028,5.934-0.015,8.769c0.529,1.418,1.372,2.683,2.466,3.713
		c0.951,0.923,2.024,1.697,3.194,2.323c1.529,0.826,3.155,1.452,4.838,1.902c0.561,0.165,1.115,0.342,1.665,0.529l0.834,0.296
		c0.08,0.034,0.163,0.063,0.231,0.103c0.831,0.291,1.586,0.758,2.212,1.361c0.438,0.41,0.777,0.911,0.993,1.475
		c0.123,0.519,0.123,1.054,0.003,1.572c-0.265,0.831-0.851,1.531-1.614,1.93c-0.84,0.438-1.745,0.729-2.688,0.837
		c-1.378,0.229-2.779,0.297-4.162,0.217c-1.82-0.143-3.642-0.382-5.441-0.729c-0.929-0.188-1.865-0.404-2.793-0.655L117.491,142.157
		"/>
	<path fill="#FFFFFF" d="M79.202,151.159v-10.853l-0.219,0.102c-2.44,1.185-5.1,1.856-7.812,1.982
		c-2.822,0.216-5.626-0.604-7.876-2.318c-1.605-1.241-2.796-2.938-3.419-4.868c-0.692-2.102-0.774-4.356-0.23-6.503
		c0.495-2.198,1.728-4.163,3.484-5.563c1.561-1.31,3.465-2.124,5.484-2.369c3.567-0.387,7.175,0.285,10.347,1.947l0.241,0.12V111.93
		l-0.501-0.131c-3.188-1.024-6.528-1.463-9.874-1.292c-3.035,0.073-6.027,0.763-8.804,2.016c-2.801,1.281-5.272,3.188-7.22,5.574
		c-6.088,7.705-6.25,18.53-0.396,26.411c2.879,3.689,6.922,6.292,11.48,7.374c4.789,1.167,9.817,0.991,14.509-0.513L79.202,151.159"
		/>
	<polyline fill="#FFFFFF" points="103.586,151.871 103.586,111.196 93.33,111.196 93.33,151.871 103.586,151.871 	"/>
	<polyline fill="#FFFFFF" points="255.392,147.15 255.392,146.536 251.047,146.536 251.047,147.15 252.853,147.15 252.853,151.871 
		253.581,151.871 253.581,147.15 255.392,147.15 	"/>
	<polyline fill="#FFFFFF" points="255.813,151.871 256.508,151.871 256.508,147.618 256.6,147.618 258.153,151.871 258.854,151.871 
		260.54,147.401 260.54,151.871 261.269,151.871 261.269,146.536 260.152,146.536 258.563,150.925 256.964,146.536 255.813,146.536 
		255.813,151.871 	"/>
	<path fill="#FFFFFF" d="M27.104,78.504c0.089,1.281,0.675,2.477,1.611,3.349c0.945,0.877,2.176,1.361,3.463,1.361
		c1.278,0,2.517-0.484,3.462-1.361c0.939-0.872,1.509-2.067,1.603-3.349V67.229c-0.051-1.31-0.595-2.545-1.546-3.457
		c-0.953-0.906-2.206-1.418-3.519-1.418c-1.315,0-2.568,0.512-3.514,1.418c-0.948,0.911-1.506,2.146-1.561,3.457V78.504"/>
	<path fill="#FFFFFF" d="M55.181,78.504c0.103,1.281,0.678,2.477,1.611,3.349c0.945,0.877,2.182,1.361,3.463,1.361
		c1.284,0,2.52-0.484,3.456-1.361c0.954-0.872,1.523-2.067,1.617-3.349V53.227c-0.046-1.304-0.609-2.545-1.552-3.445
		c-0.945-0.917-2.215-1.429-3.521-1.429c-1.308,0-2.568,0.512-3.514,1.429c-0.942,0.9-1.506,2.141-1.561,3.445V78.504"/>
	<path fill="#FFFFFF" d="M83.111,88.686c0.1,1.281,0.681,2.477,1.612,3.349c0.937,0.877,2.184,1.36,3.462,1.36
		c1.281,0,2.522-0.483,3.459-1.36c0.945-0.872,1.515-2.067,1.614-3.349V34.014c-0.054-1.31-0.611-2.557-1.557-3.457
		c-0.94-0.917-2.201-1.418-3.517-1.418c-1.312,0-2.571,0.501-3.52,1.418c-0.945,0.899-1.497,2.146-1.555,3.457V88.686"/>
	<path fill="#FFFFFF" d="M111.183,78.504c0.1,1.281,0.677,2.477,1.614,3.349c0.945,0.877,2.181,1.361,3.459,1.361
		s2.525-0.484,3.465-1.361c0.942-0.872,1.512-2.067,1.617-3.349V53.227c-0.048-1.304-0.617-2.545-1.555-3.445
		c-0.953-0.917-2.215-1.429-3.527-1.429c-1.31,0-2.571,0.512-3.514,1.429c-0.939,0.9-1.506,2.141-1.56,3.445V78.504"/>
	<path fill="#FFFFFF" d="M139.142,78.504c0.097,1.281,0.669,2.477,1.603,3.349c0.945,0.877,2.182,1.361,3.463,1.361
		c1.286,0,2.524-0.484,3.465-1.361c0.937-0.872,1.515-2.067,1.611-3.349V67.229c-0.052-1.31-0.606-2.545-1.558-3.457
		c-0.937-0.906-2.198-1.418-3.519-1.418c-1.308,0-2.568,0.512-3.511,1.418c-0.951,0.911-1.509,2.146-1.555,3.457V78.504"/>
	<path fill="#FFFFFF" d="M167.187,78.504c0.103,1.281,0.672,2.477,1.617,3.349c0.945,0.877,2.181,1.361,3.462,1.361
		s2.517-0.484,3.462-1.361c0.934-0.872,1.504-2.067,1.605-3.349V53.227c-0.045-1.304-0.614-2.545-1.549-3.445
		c-0.945-0.917-2.215-1.429-3.519-1.429c-1.321,0-2.574,0.512-3.514,1.429c-0.951,0.9-1.509,2.141-1.565,3.445V78.504"/>
	<path fill="#FFFFFF" d="M195.128,88.686c0.098,1.281,0.678,2.477,1.612,3.349c0.945,0.877,2.175,1.36,3.462,1.36
		c1.281,0,2.517-0.483,3.462-1.36c0.939-0.872,1.509-2.067,1.612-3.349V34.014c-0.052-1.31-0.604-2.557-1.55-3.457
		c-0.956-0.917-2.209-1.418-3.524-1.418c-1.31,0-2.574,0.501-3.508,1.418c-0.945,0.899-1.515,2.146-1.566,3.457V88.686"/>
	<path fill="#FFFFFF" d="M223.168,78.504c0.097,1.281,0.666,2.477,1.6,3.349c0.945,0.877,2.181,1.361,3.462,1.361
		c1.287,0,2.528-0.484,3.463-1.361c0.945-0.872,1.52-2.067,1.617-3.349V53.227c-0.058-1.304-0.615-2.545-1.566-3.445
		c-0.934-0.917-2.203-1.429-3.514-1.429c-1.31,0-2.567,0.512-3.508,1.429c-0.956,0.9-1.503,2.141-1.554,3.445V78.504"/>
	<path fill="#FFFFFF" d="M251.121,78.504c0.103,1.281,0.672,2.477,1.617,3.349c0.939,0.877,2.176,1.361,3.457,1.361
		c1.286,0,2.522-0.484,3.462-1.361c0.939-0.872,1.521-2.067,1.611-3.349V67.229c-0.057-1.31-0.615-2.545-1.549-3.457
		c-0.945-0.906-2.209-1.418-3.524-1.418s-2.568,0.512-3.52,1.418c-0.939,0.911-1.497,2.146-1.555,3.457V78.504"/>
	<path fill="#FFFFFF" d="M186.359,151.159v-10.853l-0.199,0.102c-2.449,1.185-5.114,1.856-7.824,1.982
		c-2.819,0.216-5.62-0.604-7.864-2.318c-1.611-1.241-2.802-2.938-3.434-4.868c-0.684-2.102-0.763-4.356-0.222-6.503
		c0.495-2.198,1.72-4.163,3.484-5.563c1.561-1.31,3.468-2.124,5.473-2.369c3.576-0.387,7.175,0.285,10.353,1.947l0.233,0.12V111.93
		l-0.496-0.131c-3.177-1.024-6.52-1.463-9.862-1.292c-3.041,0.073-6.042,0.763-8.814,2.016c-2.802,1.281-5.273,3.188-7.209,5.574
		c-6.094,7.705-6.253,18.53-0.399,26.411c2.882,3.689,6.919,6.292,11.475,7.374c4.789,1.167,9.823,0.991,14.515-0.513
		L186.359,151.159"/>
	<path fill="#FFFFFF" d="M197.173,131.553c0.097,6.424,3.086,12.477,8.132,16.463c5.045,3.991,11.616,5.489,17.892,4.105
		c8.53-1.611,15.17-8.313,16.689-16.861c1.521-8.547-2.396-17.134-9.845-21.581c-6.571-4.072-14.828-4.306-21.622-0.609
		C201.626,116.759,197.332,123.821,197.173,131.553 M212.063,123.211c2.215-1.771,5.045-2.591,7.864-2.272
		c2.818,0.319,5.393,1.742,7.169,3.964c1.771,2.203,2.585,5.045,2.272,7.857c-0.313,2.813-1.743,5.404-3.958,7.164
		c-2.221,1.771-5.039,2.585-7.864,2.271c-2.824-0.312-5.397-1.73-7.163-3.957c-1.776-2.221-2.597-5.04-2.277-7.864
		C208.425,127.556,209.849,124.982,212.063,123.211"/>
</g>
</svg>
