<?xml version="1.0" encoding="utf-8"?>
<!-- Generator: Adobe Illustrator 16.0.0, SVG Export Plug-In . SVG Version: 6.00 Build 0)  -->
<!DOCTYPE svg PUBLIC "-//W3C//DTD SVG 1.1//EN" "http://www.w3.org/Graphics/SVG/1.1/DTD/svg11.dtd">
<svg version="1.1" id="Layer_1" xmlns="http://www.w3.org/2000/svg" xmlns:xlink="http://www.w3.org/1999/xlink" x="0px" y="0px"
	 width="3361.343px" height="912.365px" viewBox="0 0 3361.343 912.365" enable-background="new 0 0 3361.343 912.365"
	 xml:space="preserve">
<g id="scaffold" display="none">
</g>
<g>
	<g>
		<path fill="#006DB6" d="M1342.787,801.767c-28.624-7.775-54.902-18.719-77.232-37.917c-25.076,25.282-56.562,34.59-90.521,35.243
			c-60.945,1.177-121.92,1.047-182.883,1.158c-29.482,0.055-59.012,0.31-88.441-1.115c-41.551-2.011-77.873-16.816-106.016-48.58
			c-16.854-19.021-25.559-41.83-29.895-66.555c-7.729-44.08-7.395-88.101,8.546-130.113
			c21.499-56.666,55.763-104.447,107.561-137.839c27.981-18.038,58.915-26.659,92.293-26.625
			c80.982,0.089,161.967,0.029,242.951,0.029c2.139,0,4.275,0,6.826,0c0,30.306,0,60.197,0,90.896c-1.599,0-3.351-0.001-5.104,0
			c-72.316,0.054-144.635,0.323-216.95,0.009c-18.803-0.082-37.333,0.396-55.146,6.979c-38.156,14.091-63.243,41.58-78.648,78.364
			c-12.074,28.824-16.264,58.72-8.025,89.396c10.312,38.425,41.066,59.741,80.791,56.687c5.805-0.446,11.644-0.647,17.468-0.652
			c63.486-0.045,126.976,0.175,190.459-0.223c10.866-0.067,22.094-1.389,32.504-4.386c30.63-8.818,48.247-30.834,56.539-60.608
			c2.688-9.653,4.023-19.979,4.114-30.016c0.549-61.312,0.717-122.626,0.696-183.94c-0.015-46.311-0.357-92.623-0.811-138.933
			c-0.432-44.183-22.963-73.312-62.464-90.756c-18.249-8.06-37.389-9.97-57.099-9.83c-59.979,0.428-119.964,0.457-179.943,0.623
			c-14.164,0.039-28.329,0.078-42.491-0.064c-2.398-0.022-5.061-0.454-7.146-1.559c-31.361-16.588-48.478-43.081-53.637-77.775
			c-0.068-0.461,0.116-0.961,0.276-2.12c1.902,0,3.837,0,5.771,0c53.82,0,107.644,0.121,161.462-0.046
			c33.981-0.104,67.968-1.097,101.943-0.863c35.569,0.243,70.847,3.714,105.223,13.599c30.534,8.78,58.493,22.291,81.112,45.209
			c24.733,25.062,37.361,55.979,42,90.312c1.936,14.315,2.896,28.865,2.961,43.316c0.354,80.646,0.282,161.295,0.395,241.94
			c0.087,62.816,0.219,125.636,0.35,188.45c0.041,20.66,0.145,41.319,0.216,61.979
			C1342.792,797.251,1342.787,799.057,1342.787,801.767z"/>
		<path fill="#006DB6" d="M3267.857,113.101c-1.262,27.529-13.188,48.713-33.75,65.428c-0.902,0.734-1.857,1.406-2.779,2.121
			c-10.385,8.062-21.453,12.104-35.289,12.01c-87.148-0.613-174.303-0.336-261.455-0.289c-15.646,0.01-30.58,2.772-43.039,13.167
			c-11.35,9.464-17.408,21.991-18.502,36.453c-3.018,39.867-5.51,79.773-8.201,119.664c-0.689,10.235,2.459,19.409,8.07,27.772
			c6.658,9.926,16.438,14.37,28.08,14.646c13.656,0.318,27.322,0.234,40.984,0.285c68.646,0.244,137.342-0.965,205.928,1.198
			c49.363,1.559,89.24,22.919,112.334,69.044c7.883,15.744,10.467,32.914,10.533,50.44c0.154,39.489,0.303,78.979,0.387,118.468
			c0.025,13.313,0.965,26.743-0.42,39.92c-4.869,46.371-42.021,106.521-112.057,115.827c-8.064,1.072-16.266,1.572-24.402,1.578
			c-137.477,0.094-274.951,0.067-412.428,0.067c-2.152,0-4.311,0-7.336,0c1.363-4.078,2.311-7.729,3.773-11.158
			c15.676-36.733,42.523-63.084,76.734-82.678c6.402-3.668,12.818-5.319,20.293-5.284c55.488,0.26,110.98,0.168,166.473,0.133
			c47.652-0.031,95.311-0.146,142.967-0.201c25.285-0.026,47.447-18.259,50.822-43.45c1.713-12.78,1.129-25.914,1.066-38.886
			c-0.129-27.484-0.688-54.968-0.895-82.454c-0.184-24.229-15.588-40.762-39.553-42.062c-3.488-0.189-6.988-0.283-10.484-0.283
			c-76.32-0.016-152.646,0.656-228.957-0.281c-40.672-0.5-76.197-14.697-100.742-49.079c-17.967-25.166-24.867-53.758-23.062-84.579
			c2.627-44.902,4.916-89.824,7.67-134.719c1.236-20.15,9.469-38.041,20.312-54.638c22.752-34.811,55.932-53.08,96.529-57.779
			c17.135-1.982,34.582-1.643,51.889-1.661c42.654-0.047,85.309,0.321,127.961,0.501c61.98,0.263,123.961,0.506,185.941,0.756
			C3264.566,113.104,3265.873,113.101,3267.857,113.101z"/>
		<path fill="#006DB6" d="M89.851,110.807c216.181,0,431.549,0,647.882,0c-1.865,6.37-3.148,12.388-5.357,18.042
			c-16.362,41.895-47.277,65.322-91.819,69.235c-21.333,1.875-42.938,0.802-64.423,0.791c-25.319-0.012-50.645-0.582-75.962-0.4
			c-16.746,0.119-29.805,12.254-33.873,30.655c-0.854,3.862-1.197,7.913-1.199,11.879c-0.058,184.293-0.049,368.584-0.049,552.877
			c0,1.961,0,3.923,0,7.142c-8.433-1.354-16.326-2.18-24.007-3.938c-21.312-4.889-40.664-13.763-56.202-29.641
			c-18.444-18.85-25.452-42.08-25.456-67.853c-0.021-153.968-0.058-307.933,0.079-461.896c0.011-11.713-4.104-21.474-11.438-30.066
			c-6.023-7.06-14.243-9.548-23.277-9.553c-28.993-0.012-57.986,0.141-86.979,0.021c-17.818-0.074-35.704,0.378-53.438-0.99
			c-47.33-3.648-83.938-35.032-93.424-79.017C90.429,115.853,90.242,113.55,89.851,110.807z"/>
		<path fill="#006DB6" d="M1477.765,113.45c31.328,3.378,59.396,12.482,81.659,34.812c17.51,17.559,25.071,39.402,25.09,63.857
			c0.096,133.63,0.067,267.26,0.02,400.89c-0.006,17.992-0.468,36.011,4.217,53.604c5.714,21.453,17.432,30.309,39.691,30.326
			c94.136,0.077,188.275,0.603,282.412,0.071c45.73-0.256,72.969,24.197,86.924,60.533c5.16,13.433,8.363,27.336,9.232,42.627
			c-2.002,0-3.734,0-5.473,0c-144.627,0-289.254,0.029-433.878-0.019c-46.477-0.017-82.606-32.119-88.541-78.62
			c-0.862-6.753-1.296-13.607-1.298-20.418c-0.067-193.445-0.057-386.891-0.057-580.337
			C1477.765,118.639,1477.765,116.499,1477.765,113.45z"/>
		<path fill="#006DB6" d="M2591.882,232.737c5.555,7.08,11.174,13.648,16.146,20.676c43.912,62.07,67.041,130.965,66.316,207.203
			c-0.762,80.438-24.236,153.249-76.539,215.312c-51.377,60.968-116.963,99.315-194.475,116.486
			c-93.143,20.631-180.24,4.071-261.074-46.194c-6.492-4.035-12.508-8.837-18.699-13.345c-1.604-1.166-3.037-2.562-4.979-4.226
			c1.912-2.063,3.672-3.976,5.438-5.874c13.057-14.025,26.029-28.127,39.266-41.98c1.689-1.771,4.734-3.184,7.156-3.188
			c53.99-0.104,107.98-0.003,161.973,0.098c50.986,0.096,101.977,0.315,152.967,0.305c14.119-0.002,27.613-2.873,38.645-12.446
			c11.771-10.227,17.082-23.55,17.086-38.993c0.027-111.151,0.043-222.302-0.088-333.452c-0.008-4.551,1.334-7.738,4.418-10.97
			C2560.833,266.007,2576.017,249.659,2591.882,232.737z"/>
		<path fill="#006DB6" d="M2535.828,180.796c-14.617,15.159-29.445,29.809-43.305,45.321c-4.607,5.16-9.086,6.146-15.303,6.136
			c-102.967-0.146-205.932-0.103-308.896-0.103c-30.084,0-52.537,22.332-52.541,52.473c-0.016,95.97,0.039,191.937,0.08,287.903
			c0.006,14.327,0.15,28.653,0.041,42.979c-0.016,1.957-0.605,4.416-1.857,5.783c-15.789,17.156-31.75,34.157-47.68,51.188
			c-0.32,0.347-0.771,0.567-1.633,1.185c-2.322-2.772-4.758-5.445-6.934-8.314c-37.412-49.385-60.791-104.771-67.963-166.26
			c-8.998-77.136,2.883-150.899,41.83-218.911c39.406-68.812,98.238-115.16,171.449-143.873
			c47.289-18.546,96.385-27.294,147.229-23.909c66.02,4.395,126.146,25.878,180.365,63.822c1.498,1.05,2.898,2.234,4.326,3.387
			C2535.281,179.798,2535.404,180.143,2535.828,180.796z"/>
		<path fill="#006DB6" d="M2512.179,234.612c12.855-13.443,25.793-26.979,39.461-41.275c8.957,8.345,17.639,16.431,26.791,24.957
			c-13.879,14.531-26.812,28.078-39.883,41.764c-4.061-4.997-7.521-10.157-11.889-14.385
			C2522.417,241.564,2517.25,238.415,2512.179,234.612z"/>
		<path fill="#006DB6" d="M2077.632,689.198c14.312-14.996,27.834-29.169,40.736-42.688c3.145,5.426,5.562,11.236,9.439,15.812
			c3.898,4.604,9.25,7.975,14.436,12.271c-12.562,13.15-25.252,26.438-38.709,40.526
			C2094.8,706.38,2086.322,697.892,2077.632,689.198z"/>
	</g>
	<g>
		<path fill="#006DB6" d="M3260.494,776.866h-8.842v23.975h-7.104v-23.975h-8.678v-5.484h24.623V776.866L3260.494,776.866z"/>
		<path fill="#006DB6" d="M3272.814,771.382l6.576,20.495l6.557-20.495h9.35v29.459h-7.123v-6.879l0.688-14.082l-7.123,20.961
			h-4.693l-7.145-20.979l0.689,14.102v6.879h-7.104v-29.459L3272.814,771.382L3272.814,771.382z"/>
	</g>
</g>
</svg>
